<svg width="125" height="36" viewBox="0 0 125 36" fill="none" xmlns="http://www.w3.org/2000/svg">
<path d="M0 7.73077H3.44283V14.6538H3.55759C3.83811 13.4231 4.27166 12.3334 4.85821 11.3847C5.44478 10.4359 6.13334 9.64103 6.92391 9C7.7145 8.33334 8.59433 7.83333 9.56341 7.50001C10.558 7.16667 11.5909 7 12.662 7C13.835 7 14.9827 7.20513 16.1048 7.61539C17.2525 8 18.2726 8.61539 19.1651 9.46153C20.0577 10.2821 20.7718 11.3205 21.3073 12.5769C21.8684 13.8077 22.1489 15.2692 22.1489 16.9615C22.1489 18.6795 21.8811 20.1666 21.3455 21.423C20.8355 22.6794 20.1469 23.7179 19.2799 24.5385C18.4128 25.359 17.4182 25.9743 16.296 26.3846C15.1995 26.7693 14.0773 26.9615 12.9298 26.9615C11.8076 26.9615 10.7365 26.8077 9.71643 26.5C8.72184 26.1922 7.81649 25.7308 7.00042 25.1154C6.18434 24.4744 5.48302 23.6923 4.89647 22.7692C4.30992 21.8205 3.86362 20.718 3.55759 19.4615H3.44283L3.51934 36H0.0382535L0 7.73077ZM3.55759 17C3.55759 17.718 3.71061 18.4871 4.01664 19.3077C4.34816 20.1282 4.83272 20.8974 5.47027 21.6154C6.10783 22.3077 6.91116 22.8846 7.88026 23.3461C8.87485 23.8077 10.0352 24.0384 11.3614 24.0384C12.611 24.0384 13.7076 23.8462 14.6512 23.4615C15.5947 23.0769 16.3853 22.5641 17.0229 21.9231C17.6605 21.2564 18.145 20.5 18.4765 19.6539C18.8081 18.8076 18.9738 17.9231 18.9738 17C18.9738 16.1026 18.8081 15.2308 18.4765 14.3846C18.1705 13.5128 17.6859 12.7436 17.0229 12.0769C16.3853 11.4102 15.5693 10.8846 14.5746 10.5C13.6055 10.0897 12.4579 9.88461 11.1318 9.88461C9.8567 9.88461 8.74734 10.1154 7.80375 10.5769C6.86016 11.0385 6.06959 11.6282 5.43202 12.3462C4.79446 13.0641 4.32267 13.8462 4.01664 14.6923C3.71061 15.5129 3.55759 16.282 3.55759 17Z" fill="black"/>
<path d="M40.245 26.6538L40.4363 17.0384H40.3214C39.9134 18.3461 39.3906 19.6025 38.7531 20.8076C38.1155 21.9872 37.376 23.0384 36.5344 23.9614C35.6928 24.8846 34.7492 25.6153 33.7036 26.1538C32.6835 26.6923 31.5741 26.9615 30.3755 26.9615C29.5339 26.9615 28.7433 26.8077 28.0038 26.5C27.2642 26.1922 26.6139 25.782 26.0528 25.2691C25.5173 24.7307 25.0837 24.1153 24.7522 23.423C24.4462 22.7307 24.2932 22 24.2932 21.2307C24.2932 20.1025 24.5737 19.1537 25.1348 18.3846C25.7213 17.5897 26.4736 16.9358 27.3917 16.423C28.3353 15.8846 29.3809 15.4615 30.5286 15.1538C31.7016 14.8205 32.8748 14.5384 34.0479 14.3076C35.2465 14.0512 36.3941 13.8205 37.4907 13.6154C38.5873 13.3845 39.5309 13.1153 40.3214 12.8076V10.6923H26.2823V7.69226H43.4583V26.6538H40.245ZM27.7743 21.1153C27.7743 21.9359 28.0802 22.641 28.6923 23.2307C29.33 23.7948 30.1332 24.0769 31.1023 24.0769C32.0714 24.0769 32.9895 23.8846 33.8566 23.5C34.7491 23.0897 35.5781 22.5384 36.3431 21.8461C37.1337 21.1538 37.8478 20.359 38.4853 19.4614C39.1484 18.5384 39.7349 17.5512 40.245 16.5V15.6538C39.5819 15.8846 38.8041 16.1025 37.9115 16.3076C37.0444 16.4872 36.1518 16.6666 35.2337 16.8461C34.3157 17.0256 33.4103 17.2307 32.5178 17.4615C31.6251 17.6666 30.8218 17.9358 30.1078 18.2692C29.4192 18.5768 28.8582 18.9615 28.4246 19.4231C27.991 19.8845 27.7743 20.4486 27.7743 21.1153Z" fill="black"/>
<path d="M46.532 7.69226H50.1279L50.0131 15.1923H50.1661C50.4467 14.0384 50.8802 12.9487 51.4668 11.923C52.0533 10.8717 52.7929 9.97431 53.6855 9.23072C54.5781 8.46149 55.6236 7.88457 56.8222 7.49995C58.0464 7.11534 59.4235 6.98713 60.9537 7.11534V10.8461C59.2705 10.4358 57.7531 10.3974 56.4014 10.7307C55.0498 11.0384 53.9022 11.5512 52.9587 12.2692C52.0405 12.9615 51.3265 13.7692 50.8164 14.6922C50.3319 15.6153 50.0897 16.4743 50.0897 17.2691L50.0131 26.6538H46.532V7.69226Z" fill="black"/>
<path d="M78.1474 26.6538L78.3387 17.0384H78.2239C77.8159 18.3461 77.2932 19.6025 76.6555 20.8076C76.018 21.9872 75.2784 23.0384 74.4368 23.9614C73.5952 24.8846 72.6517 25.6153 71.606 26.1538C70.5859 26.6923 69.4766 26.9615 68.278 26.9615C67.4364 26.9615 66.6458 26.8077 65.9062 26.5C65.1667 26.1922 64.5164 25.782 63.9554 25.2691C63.4198 24.7307 62.9862 24.1153 62.6548 23.423C62.3487 22.7307 62.1956 22 62.1956 21.2307C62.1956 20.1025 62.4761 19.1537 63.0372 18.3846C63.6238 17.5897 64.3761 16.9358 65.2943 16.423C66.2378 15.8846 67.2834 15.4615 68.431 15.1538C69.6042 14.8205 70.7772 14.5384 71.9504 14.3076C73.149 14.0512 74.2966 13.8205 75.3932 13.6154C76.4898 13.3845 77.4334 13.1153 78.2239 12.8076V10.6923H64.1849V7.69226H81.3608V26.6538H78.1474ZM65.6767 21.1153C65.6767 21.9359 65.9828 22.641 66.5949 23.2307C67.2324 23.7948 68.0357 24.0769 69.0048 24.0769C69.974 24.0769 70.892 23.8846 71.7591 23.5C72.6517 23.0897 73.4805 22.5384 74.2455 21.8461C75.0361 21.1538 75.7502 20.359 76.3878 19.4614C77.0509 18.5384 77.6374 17.5512 78.1474 16.5V15.6538C77.4843 15.8846 76.7065 16.1025 75.814 16.3076C74.9469 16.4872 74.0544 16.6666 73.1362 16.8461C72.2181 17.0256 71.3128 17.2307 70.4202 17.4615C69.5276 17.6666 68.7244 17.9358 68.0102 18.2692C67.3217 18.5768 66.7606 18.9615 66.327 19.4231C65.8936 19.8845 65.6767 20.4486 65.6767 21.1153Z" fill="black"/>
<path d="M87.8391 26.6923H84.4346L84.511 0H87.9921L87.9156 13.3461L87.8391 26.6923Z" fill="black"/>
<path d="M94.257 26.6923H90.8525L90.9289 0H94.41L94.257 26.6923Z" fill="black"/>
<path d="M117.401 21.2308C117.172 21.7436 116.841 22.3333 116.407 23C115.974 23.641 115.362 24.2564 114.571 24.8462C113.805 25.4359 112.837 25.9359 111.664 26.3462C110.49 26.7564 109.05 26.9615 107.341 26.9615C105.479 26.9615 103.86 26.718 102.483 26.2307C101.106 25.718 99.958 25.0256 99.0399 24.1539C98.1474 23.2565 97.4715 22.2051 97.0124 21C96.579 19.7948 96.3621 18.5 96.3621 17.1154C96.3621 15.3974 96.6682 13.9103 97.2803 12.6539C97.8923 11.3718 98.6829 10.3205 99.6519 9.5C100.647 8.65385 101.769 8.02564 103.018 7.61539C104.268 7.20513 105.53 7 106.805 7C108.157 7 109.483 7.21795 110.784 7.65385C112.11 8.0641 113.271 8.71795 114.265 9.61539C115.285 10.5128 116.076 11.6539 116.637 13.0384C117.223 14.3974 117.465 16.0256 117.363 17.9231L99.8814 17.9615C99.907 18.8333 100.086 19.641 100.417 20.3847C100.774 21.1025 101.271 21.7307 101.909 22.2693C102.572 22.8077 103.35 23.2308 104.242 23.5385C105.16 23.8205 106.193 23.9615 107.341 23.9615C108.463 23.9615 109.407 23.8205 110.172 23.5385C110.962 23.2565 111.613 22.9231 112.123 22.5385C112.633 22.1282 113.028 21.7051 113.309 21.2693C113.615 20.8077 113.844 20.4102 113.997 20.077L117.401 21.2308ZM106.882 9.96154C106.066 9.96154 105.262 10.0769 104.472 10.3077C103.707 10.5385 103.006 10.8846 102.368 11.3462C101.73 11.8077 101.182 12.3974 100.723 13.1154C100.29 13.8077 100.009 14.6154 99.8814 15.5385H114.035C113.959 14.5898 113.691 13.7692 113.232 13.0769C112.773 12.3846 112.199 11.8077 111.511 11.3462C110.848 10.8846 110.108 10.5385 109.292 10.3077C108.476 10.0769 107.672 9.96154 106.882 9.96154Z" fill="black"/>
<path d="M123.717 26.6923H120.312L120.389 0H123.87L123.717 26.6923Z" fill="black"/>
</svg>
