<svg width="27" height="21" viewBox="0 0 27 21" fill="none" xmlns="http://www.w3.org/2000/svg">
<path fill-rule="evenodd" clip-rule="evenodd" d="M3.10657 0.408203H23.2732C24.0026 0.408203 24.7021 0.697933 25.2178 1.21366C25.7335 1.72938 26.0232 2.42886 26.0232 3.1582V3.7082L13.1899 11.2616L0.356567 3.71187V3.1582C0.356567 2.42886 0.646297 1.72938 1.16203 1.21366C1.67775 0.697933 2.37723 0.408203 3.10657 0.408203ZM13.6556 13.1151L26.0232 5.83667V17.8249C26.0232 18.5542 25.7335 19.2537 25.2178 19.7694C24.7021 20.2852 24.0026 20.5749 23.2732 20.5749H3.10657C2.37723 20.5749 1.67775 20.2852 1.16203 19.7694C0.646297 19.2537 0.356567 18.5542 0.356567 17.8249V5.84037L12.7242 13.1151L12.8746 13.1847C13.0018 13.2316 13.1378 13.2497 13.2729 13.2376C13.4079 13.2256 13.5386 13.1837 13.6556 13.1151Z" fill="white"/>
</svg>
