<svg width="559" height="168" viewBox="0 0 559 168" fill="none" xmlns="http://www.w3.org/2000/svg">
<g clip-path="url(#clip0_8_182)">
<path d="M0 42.1657H15.3679V72.9821H15.8802C17.1323 67.5037 19.0676 62.6532 21.6858 58.4302C24.3041 54.207 27.3776 50.6688 30.9065 47.8154C34.4355 44.8479 38.3628 42.6222 42.6886 41.1385C47.1282 39.6547 51.7387 38.9128 56.5199 38.9128C61.756 38.9128 66.879 39.8259 71.8874 41.6521C77.0104 43.3641 81.5639 46.1034 85.5478 49.8698C89.5322 53.5222 92.7198 58.1448 95.1101 63.7374C97.6146 69.2158 98.8668 75.7213 98.8668 83.2543C98.8668 90.9016 97.6717 97.5213 95.2808 103.114C93.0041 108.706 89.9306 113.329 86.0603 116.982C82.19 120.634 77.7501 123.373 72.7412 125.199C67.8464 126.911 62.8375 127.767 57.715 127.767C52.7061 127.767 47.925 127.083 43.3716 125.713C38.932 124.343 34.8908 122.289 31.2481 119.55C27.6053 116.696 24.4748 113.215 21.8566 109.106C19.2383 104.883 17.2462 99.9755 15.8802 94.3825H15.3679L15.7094 168H0.170754L0 42.1657ZM15.8802 83.4256C15.8802 86.6215 16.5632 90.0453 17.9292 93.6979C19.4091 97.35 21.572 100.774 24.4179 103.97C27.2638 107.052 30.8496 109.62 35.1754 111.674C39.615 113.729 44.7946 114.756 50.7142 114.756C56.2921 114.756 61.1869 113.9 65.399 112.188C69.6107 110.476 73.1396 108.193 75.9859 105.34C78.8317 102.372 80.9943 99.0051 82.4743 95.2388C83.9542 91.472 84.6939 87.5344 84.6939 83.4256C84.6939 79.431 83.9542 75.5505 82.4743 71.7837C81.1084 67.9033 78.9453 64.479 75.9859 61.5115C73.1396 58.5439 69.4971 56.2044 65.0572 54.4923C60.7315 52.6662 55.609 51.7531 49.6895 51.7531C43.9977 51.7531 39.0458 52.7803 34.8339 54.8347C30.6219 56.8892 27.093 59.5144 24.2471 62.7103C21.4012 65.9057 19.2952 69.3871 17.9292 73.1533C16.5632 76.806 15.8802 80.2297 15.8802 83.4256Z" fill="black"/>
<path d="M179.643 126.398L180.497 83.597H179.984C178.163 89.4179 175.829 95.0105 172.983 100.375C170.138 105.625 166.836 110.305 163.08 114.413C159.323 118.523 155.111 121.775 150.444 124.172C145.89 126.569 140.939 127.767 135.588 127.767C131.832 127.767 128.303 127.083 125.001 125.713C121.7 124.343 118.797 122.517 116.293 120.234C113.903 117.838 111.967 115.098 110.487 112.017C109.121 108.935 108.438 105.682 108.438 102.258C108.438 97.2359 109.69 93.0129 112.195 89.5892C114.813 86.0508 118.171 83.1403 122.269 80.8578C126.481 78.4611 131.148 76.5777 136.271 75.2081C141.508 73.7243 146.744 72.4689 151.981 71.4413C157.331 70.3001 162.454 69.273 167.348 68.3601C172.244 67.3325 176.455 66.1342 179.984 64.7646V55.3484H117.317V41.9946H193.987V126.398H179.643ZM123.977 101.744C123.977 105.397 125.343 108.536 128.075 111.161C130.921 113.672 134.507 114.927 138.832 114.927C143.158 114.927 147.256 114.071 151.127 112.359C155.111 110.533 158.811 108.079 162.226 104.997C165.755 101.916 168.942 98.3777 171.788 94.3826C174.748 90.2737 177.366 85.8795 179.643 81.2003V77.4335C176.683 78.4611 173.211 79.4311 169.227 80.344C165.356 81.1432 161.372 81.9419 157.274 82.7412C153.176 83.5399 149.135 84.4528 145.151 85.4804C141.166 86.3933 137.58 87.5916 134.393 89.0754C131.32 90.445 128.815 92.1571 126.88 94.2118C124.944 96.2659 123.977 98.7768 123.977 101.744Z" fill="black"/>
<path d="M207.706 41.9946H223.758L223.245 75.3793H223.928C225.181 70.2429 227.116 65.3925 229.734 60.827C232.352 56.1474 235.653 52.1526 239.638 48.8427C243.622 45.4186 248.289 42.8506 253.639 41.1386C259.104 39.4265 265.251 38.8559 272.081 39.4265V56.0332C264.568 54.207 257.794 54.0358 251.761 55.5196C245.728 56.8892 240.605 59.1719 236.394 62.3678C232.295 65.4496 229.108 69.0446 226.831 73.1534C224.668 77.2622 223.587 81.0861 223.587 84.624L223.245 126.398H207.706V41.9946Z" fill="black"/>
<path d="M348.83 126.398L349.683 83.597H349.171C347.35 89.4179 345.016 95.0105 342.17 100.375C339.324 105.625 336.023 110.305 332.266 114.413C328.51 118.523 324.298 121.775 319.631 124.172C315.077 126.569 310.125 127.767 304.775 127.767C301.018 127.767 297.489 127.083 294.188 125.713C290.887 124.343 287.984 122.517 285.48 120.234C283.089 117.838 281.154 115.098 279.674 112.017C278.308 108.935 277.625 105.682 277.625 102.258C277.625 97.2359 278.877 93.0129 281.382 89.5892C284 86.0508 287.358 83.1403 291.456 80.8578C295.668 78.4611 300.336 76.5777 305.458 75.2081C310.695 73.7243 315.931 72.4689 321.168 71.4413C326.518 70.3001 331.64 69.273 336.536 68.3601C341.43 67.3325 345.642 66.1342 349.171 64.7646V55.3484H286.505V41.9946H363.173V126.398H348.83ZM293.164 101.744C293.164 105.397 294.53 108.536 297.262 111.161C300.108 113.672 303.693 114.927 308.019 114.927C312.345 114.927 316.443 114.071 320.314 112.359C324.298 110.533 327.998 108.079 331.413 104.997C334.941 101.916 338.129 98.3777 340.975 94.3826C343.935 90.2737 346.553 85.8795 348.83 81.2003V77.4335C345.87 78.4611 342.398 79.4311 338.414 80.344C334.543 81.1432 330.559 81.9419 326.461 82.7412C322.363 83.5399 318.322 84.4528 314.337 85.4804C310.353 86.3933 306.767 87.5916 303.58 89.0754C300.506 90.445 298.002 92.1571 296.066 94.2118C294.132 96.2659 293.164 98.7768 293.164 101.744Z" fill="black"/>
<path d="M392.09 126.569H376.894L377.235 7.75391H392.774L392.432 67.1612L392.09 126.569Z" fill="black"/>
<path d="M420.739 126.569H405.542L405.883 7.75391H421.422L420.739 126.569Z" fill="black"/>
<path d="M524.048 102.258C523.027 104.541 521.546 107.166 519.609 110.133C517.677 112.987 514.944 115.726 511.416 118.351C507.997 120.976 503.673 123.202 498.437 125.028C493.2 126.854 486.769 127.767 479.142 127.767C470.832 127.767 463.603 126.683 457.456 124.514C451.309 122.232 446.186 119.15 442.088 115.27C438.104 111.275 435.087 106.595 433.038 101.231C431.103 95.8662 430.135 90.1024 430.135 83.9394C430.135 76.2922 431.502 69.6725 434.234 64.0799C436.965 58.3731 440.494 53.6934 444.82 50.041C449.26 46.2746 454.269 43.4783 459.847 41.6521C465.425 39.8259 471.059 38.9128 476.751 38.9128C482.785 38.9128 488.704 39.883 494.51 41.8233C500.429 43.6495 505.61 46.5599 510.05 50.5547C514.604 54.5494 518.132 59.6286 520.635 65.7915C523.252 71.8408 524.333 79.0885 523.878 87.5344L445.845 87.7057C445.959 91.5862 446.756 95.1817 448.235 98.4918C449.829 101.687 452.049 104.483 454.895 106.881C457.854 109.277 461.326 111.161 465.311 112.53C469.409 113.786 474.019 114.413 479.142 114.413C484.151 114.413 488.363 113.786 491.778 112.53C495.307 111.275 498.209 109.791 500.486 108.079C502.762 106.253 504.529 104.369 505.78 102.429C507.147 100.375 508.168 98.6054 508.853 97.1222L524.048 102.258ZM477.093 52.0955C473.45 52.0955 469.864 52.6091 466.335 53.6363C462.92 54.6635 459.79 56.2044 456.944 58.259C454.098 60.3131 451.65 62.9381 449.601 66.1341C447.666 69.2158 446.414 72.8113 445.845 76.9201H509.024C508.683 72.6971 507.487 69.0445 505.44 65.9628C503.388 62.8811 500.825 60.3131 497.754 58.259C494.795 56.2044 491.493 54.6635 487.85 53.6363C484.208 52.6091 480.622 52.0955 477.093 52.0955Z" fill="black"/>
<path d="M552.241 126.569H537.041L537.386 7.75391H552.921L552.241 126.569Z" fill="black"/>
<path d="M6.54859 34.9118H20.9158V65.2282V65.7282H21.4158H21.9281H22.3267L22.4155 65.3396C23.657 59.908 25.573 55.1102 28.1587 50.9398L27.7337 50.6763L28.1587 50.9398C30.7502 46.7597 33.7875 43.2652 37.2688 40.4503L37.2689 40.4504L37.2762 40.4442C40.7579 37.5164 44.6306 35.3218 48.8968 33.8582C53.2837 32.3923 57.84 31.6589 62.5678 31.6589C67.7444 31.6589 72.8095 32.5614 77.764 34.3679L77.764 34.3681L77.7768 34.3724C82.8298 36.061 87.3204 38.762 91.2522 42.4793L91.2578 42.4845C95.1836 46.0831 98.3324 50.6446 100.698 56.18L100.698 56.18L100.703 56.1913C103.171 61.5903 104.415 68.0217 104.415 75.5004C104.415 83.0969 103.227 89.6467 100.869 95.1634L100.869 95.1634L100.866 95.1714C98.6122 100.707 95.5767 105.267 91.765 108.864C87.9451 112.469 83.5648 115.171 78.6209 116.975C73.7796 118.668 68.8275 119.513 63.7629 119.513C58.8007 119.513 54.0689 118.835 49.565 117.481C45.1819 116.128 41.1946 114.101 37.6006 111.399C34.0071 108.584 30.916 105.147 28.3278 101.086C25.7422 96.915 23.769 92.0586 22.4138 86.5099L22.3206 86.1286H21.9281H21.4158H20.9135L20.9158 86.6309L21.255 159.746H6.71799L6.54859 34.9118ZM23.5088 86.1191L23.5086 86.1192L23.5137 86.1318C25.0168 89.8413 27.2117 93.3138 30.0924 96.5488L30.0923 96.5488L30.0984 96.5555C32.9933 99.6903 36.6335 102.294 41.0088 104.372L41.0133 104.374C45.5311 106.465 50.7849 107.502 56.7621 107.502C62.3904 107.502 67.3514 106.638 71.6352 104.897C75.901 103.163 79.4885 100.846 82.3878 97.939L82.3879 97.9391L82.3947 97.9319C85.2849 94.9181 87.4834 91.4957 88.9875 87.6677L88.5222 87.4849L88.9876 87.6677C90.4908 83.8418 91.2419 79.8421 91.2419 75.6717C91.2419 71.6166 90.4912 67.6769 88.9908 63.8552C87.6001 59.908 85.3983 56.4242 82.3912 53.4078C79.4889 50.383 75.7848 48.0081 71.2924 46.2747C66.8928 44.4188 61.7036 43.4992 55.7374 43.4992C49.9857 43.4992 44.9559 44.5373 40.6626 46.6314C36.3977 48.7117 32.8148 51.3749 29.9216 54.6238C27.037 57.8627 24.8971 61.3975 23.508 65.2264C22.126 68.9223 21.4281 72.4051 21.4281 75.6717C21.4281 78.939 22.1263 82.4225 23.5088 86.1191Z" stroke="black"/>
<path d="M133.784 103.775L133.776 103.767C130.95 101.052 129.525 97.7847 129.525 93.9905C129.525 90.9027 130.536 88.2671 132.564 86.115C134.552 84.0047 137.113 82.2577 140.234 80.8665C143.455 79.3673 147.071 78.1596 151.08 77.2406C155.072 76.2112 159.121 75.2967 163.226 74.4965M133.784 103.775L163.322 74.9873M133.784 103.775L133.792 103.782C136.742 106.385 140.451 107.673 144.88 107.673C149.274 107.673 153.441 106.803 157.377 105.063L157.383 105.06C161.414 103.212 165.156 100.73 168.606 97.6174M133.784 103.775L178.243 86.9198M163.226 74.4965L163.322 74.9873M163.226 74.4965C163.226 74.4965 163.226 74.4965 163.226 74.4965L163.322 74.9873M163.226 74.4965C167.321 73.698 171.302 72.8999 175.168 72.1015M163.322 74.9873C167.42 74.188 171.404 73.3893 175.275 72.5901M175.168 72.1015C175.167 72.1019 175.165 72.1023 175.163 72.1027L175.275 72.5901M175.168 72.1015C179.138 71.1918 182.59 70.227 185.527 69.2073L186.191 68.9768V69.6796V73.4464V73.5616L186.14 73.6652C183.852 78.3689 181.219 82.7874 178.243 86.9198M175.168 72.1015C175.17 72.1011 175.172 72.1008 175.173 72.1004L175.275 72.5901M175.275 72.5901L178.243 86.9198M185.691 69.6796L185.855 70.152C185.8 70.1709 185.746 70.1898 185.691 70.2086V69.6796ZM185.691 69.6796H185.191V69.851C185.359 69.794 185.526 69.7369 185.691 69.6796ZM178.243 86.9198C178.243 86.9194 178.243 86.9191 178.243 86.9187L177.836 86.6287L178.242 86.9209C178.242 86.9205 178.242 86.9201 178.243 86.9198ZM178.243 86.9198C175.376 90.9437 172.164 94.5097 168.606 97.6174M168.606 97.6174C168.607 97.6165 168.608 97.6156 168.609 97.6146L168.274 97.2435L168.603 97.6201C168.604 97.6192 168.605 97.6183 168.606 97.6174ZM185.555 75.6938C183.743 81.4849 181.421 87.0485 178.59 92.3849C175.763 97.6013 172.485 102.246 168.759 106.322L169.128 106.659L168.759 106.322C165.04 110.39 160.875 113.605 156.263 115.974L156.259 115.976C151.78 118.333 146.909 119.513 141.636 119.513C137.942 119.513 134.478 118.841 131.241 117.497C127.994 116.15 125.144 114.357 122.686 112.119C120.342 109.766 118.443 107.078 116.989 104.053C115.654 101.038 114.986 97.8572 114.986 94.5042C114.986 89.5687 116.215 85.4547 118.645 82.1317C121.218 78.6547 124.521 75.7907 128.56 73.5407L128.564 73.5384C132.736 71.1648 137.363 69.2968 142.448 67.9372L142.448 67.9373L142.456 67.9353C147.679 66.4551 152.902 65.2029 158.125 64.1781L158.125 64.1781L158.133 64.1764C163.479 63.036 168.598 62.0097 173.488 61.0977L173.488 61.0978L173.499 61.0955C178.413 60.064 182.652 58.8588 186.213 57.4768L186.532 57.3529V57.0106V47.5945V47.0945H186.032H123.865V34.7407H199.534V118.144H186.201L187.045 75.853L187.055 75.3431H186.545H186.032H185.665L185.555 75.6938Z" stroke="black"/>
<path d="M228.797 118.144H214.254V34.7407H229.298L228.793 67.6177L228.785 68.1254H229.293H229.976H230.369L230.462 67.7438C231.703 62.6529 233.621 57.8463 236.216 53.3218L236.216 53.3218L236.218 53.3172C238.807 48.6893 242.07 44.7427 246.005 41.4734L246.005 41.4734L246.011 41.468C249.941 38.0908 254.548 35.5544 259.838 33.8613C265.108 32.2106 271.035 31.6308 277.629 32.1342V47.6465C270.303 45.9447 263.654 45.8142 257.694 47.2791C251.605 48.6618 246.416 50.9704 242.14 54.2151C237.991 57.335 234.755 60.9818 232.442 65.1571L232.442 65.1571L232.437 65.1666C230.247 69.3248 229.135 73.2282 229.135 76.8681C229.135 76.8688 229.135 76.8694 229.135 76.8701L228.797 118.144Z" stroke="black"/>
<path d="M354.742 75.6938C352.93 81.4848 350.609 87.0482 347.777 92.3845C344.95 97.6011 341.672 102.246 337.945 106.322L338.314 106.659L337.945 106.322C334.226 110.39 330.062 113.605 325.45 115.974L325.446 115.976C320.967 118.333 316.095 119.513 310.823 119.513C307.129 119.513 303.665 118.841 300.428 117.497C297.181 116.15 294.331 114.357 291.874 112.119C289.528 109.766 287.63 107.078 286.176 104.053C284.841 101.038 284.173 97.8573 284.173 94.5042C284.173 89.5688 285.402 85.4548 287.832 82.1319C290.405 78.6547 293.708 75.7907 297.748 73.5407L297.752 73.5384C301.923 71.1648 306.55 69.2968 311.635 67.9372L311.635 67.9373L311.642 67.9353C316.866 66.4551 322.089 65.2029 327.312 64.1781L327.312 64.1781L327.32 64.1764C332.666 63.036 337.785 62.0097 342.675 61.0977L342.675 61.0978L342.686 61.0955C347.6 60.064 351.839 58.8588 355.4 57.4768L355.719 57.3529V57.0106V47.5945V47.0945H355.219H293.053V34.7407H368.721V118.144H355.388L356.231 75.853L356.241 75.3431H355.731H355.219H354.851L354.742 75.6938ZM302.964 103.767L302.971 103.775L302.979 103.782C305.929 106.385 309.638 107.673 314.067 107.673C318.461 107.673 322.628 106.803 326.564 105.063L326.57 105.06C330.602 103.212 334.343 100.73 337.792 97.6174C341.351 94.5097 344.563 90.9435 347.43 86.9194C350.406 82.7872 353.039 78.3688 355.327 73.6652L355.378 73.5616V73.4464V69.6796V68.9768L354.714 69.2073C351.776 70.227 348.324 71.1919 344.355 72.1015C340.488 72.9 336.508 73.698 332.413 74.4965C328.308 75.2967 324.259 76.2112 320.267 77.2406C316.258 78.1596 312.642 79.3673 309.42 80.8665C306.3 82.2577 303.738 84.0047 301.75 86.115C299.723 88.2671 298.712 90.9026 298.712 93.9905C298.712 97.7848 300.137 101.052 302.964 103.767Z" stroke="black"/>
<path d="M397.98 59.4044L397.641 118.315H383.443L383.781 0.5H398.319L397.98 59.4044Z" stroke="black"/>
<path d="M426.967 0.5L426.289 118.315H412.091L412.429 0.5H426.967Z" stroke="black"/>
<path d="M517.165 110.196L517.159 110.201C513.793 112.786 509.52 114.989 504.32 116.802C499.152 118.604 492.78 119.513 485.19 119.513C476.923 119.513 469.754 118.435 463.674 116.29C457.584 114.028 452.525 110.982 448.485 107.157C444.555 103.216 441.578 98.5989 439.555 93.3031C437.642 87.9982 436.683 82.2936 436.683 76.1855C436.683 68.5973 438.039 62.0559 440.731 56.5455L440.731 56.5455L440.733 56.5419C443.437 50.8914 446.925 46.2708 451.191 42.6692L451.191 42.6684C455.582 38.9442 460.533 36.1796 466.05 34.3734C471.58 32.5631 477.162 31.6589 482.799 31.6589C488.778 31.6589 494.644 32.6201 500.399 34.5436L500.399 34.5438L500.41 34.5472C506.263 36.3528 511.38 39.2281 515.763 43.1725L515.768 43.1767C520.258 47.1152 523.743 52.1277 526.22 58.2257L526.219 58.2258L526.224 58.2362C528.755 64.0851 529.838 71.0946 529.451 79.2816L451.891 79.4518L451.378 79.4529L451.393 79.9665C451.509 83.9076 452.318 87.568 453.827 90.9419L453.831 90.9516L453.836 90.961C455.461 94.2201 457.725 97.0699 460.621 99.5092L460.621 99.5093L460.628 99.5153C463.638 101.952 467.162 103.863 471.196 105.249L471.204 105.252L471.212 105.254C475.366 106.527 480.027 107.159 485.19 107.159C490.236 107.159 494.51 106.528 497.996 105.247C501.557 103.979 504.508 102.475 506.835 100.725L506.841 100.72L506.847 100.715C509.153 98.8647 510.96 96.9438 512.247 94.9494C513.499 93.0653 514.47 91.4095 515.162 89.9843L529.411 94.8004C528.416 96.9329 527.026 99.3662 525.24 102.102C523.347 104.897 520.659 107.596 517.165 110.196ZM472.243 45.4023L472.239 45.4036C468.772 46.4466 465.591 48.0119 462.699 50.0996C459.798 52.1934 457.308 54.8659 455.228 58.1103L455.226 58.1143C453.248 61.2638 451.975 64.9285 451.397 69.0976L451.318 69.6662H451.893H515.071H515.613L515.57 69.1261C515.224 64.8308 514.005 61.0941 511.904 57.9322L511.904 57.9318C509.816 54.7965 507.208 52.1823 504.084 50.0919C501.077 48.0053 497.726 46.4423 494.034 45.4012C490.35 44.3624 486.719 43.8416 483.141 43.8416C479.45 43.8416 475.817 44.362 472.243 45.4023Z" stroke="black"/>
<path d="M558.467 0.5L557.792 118.315H543.59L543.933 0.5H558.467Z" stroke="black"/>
</g>
<defs>
<clipPath id="clip0_8_182">
<rect width="559" height="168" fill="white"/>
</clipPath>
</defs>
</svg>
