<svg width="25" height="25" viewBox="0 0 25 25" fill="none" xmlns="http://www.w3.org/2000/svg">
<path d="M12.4885 8.32589C10.1947 8.32589 8.32279 10.1978 8.32279 12.4916C8.32279 14.7853 10.1947 16.6572 12.4885 16.6572C14.7822 16.6572 16.6541 14.7853 16.6541 12.4916C16.6541 10.1978 14.7822 8.32589 12.4885 8.32589ZM24.9822 12.4916C24.9822 10.7666 24.9978 9.05719 24.901 7.33529C24.8041 5.3353 24.3478 3.5603 22.8853 2.09781C21.4197 0.632179 19.6478 0.179059 17.6478 0.0821788C15.9228 -0.0146912 14.2135 0.000928839 12.4916 0.000928839C10.7666 0.000928839 9.05719 -0.0146912 7.33529 0.0821788C5.33531 0.179059 3.56031 0.635309 2.09781 2.09781C0.632179 3.56343 0.179059 5.3353 0.0821788 7.33529C-0.0146912 9.06029 0.000928839 10.7697 0.000928839 12.4916C0.000928839 14.2134 -0.0146912 15.9259 0.0821788 17.6478C0.179059 19.6478 0.635309 21.4228 2.09781 22.8853C3.56344 24.3509 5.33531 24.8041 7.33529 24.9009C9.06029 24.9978 10.7697 24.9822 12.4916 24.9822C14.2166 24.9822 15.926 24.9978 17.6478 24.9009C19.6478 24.8041 21.4228 24.3478 22.8853 22.8853C24.351 21.4197 24.8041 19.6478 24.901 17.6478C25.001 15.9259 24.9822 14.2166 24.9822 12.4916ZM12.4885 18.9009C8.94159 18.9009 6.07906 16.0384 6.07906 12.4916C6.07906 8.94469 8.94159 6.08218 12.4885 6.08218C16.0353 6.08218 18.8978 8.94469 18.8978 12.4916C18.8978 16.0384 16.0353 18.9009 12.4885 18.9009ZM19.1603 7.31659C18.3322 7.31659 17.6635 6.64779 17.6635 5.81968C17.6635 4.99155 18.3322 4.3228 19.1603 4.3228C19.9885 4.3228 20.6572 4.99155 20.6572 5.81968C20.6575 6.01632 20.6189 6.21108 20.5438 6.3928C20.4686 6.57449 20.3584 6.73959 20.2193 6.87869C20.0803 7.01769 19.9152 7.12799 19.7335 7.20309C19.5517 7.27829 19.357 7.31679 19.1603 7.31659Z" fill="white"/>
</svg>
