<svg width="25" height="23" viewBox="0 0 25 23" fill="none" xmlns="http://www.w3.org/2000/svg">
<path d="M5.80941 2.80243C5.80941 4.26837 4.69336 5.44347 2.89905 5.44347H2.86562C1.13816 5.44453 0.0231934 4.26731 0.0231934 2.80243C0.0231934 1.30134 1.17375 0.158204 2.93248 0.158204C4.69336 0.157139 5.77707 1.30134 5.80941 2.80243ZM0.32512 22.8238H5.47082V7.53264H0.32512V22.8238ZM18.1 7.17468C15.3708 7.17468 14.1491 8.65554 13.4622 9.69959V9.7486H13.4288C13.4417 9.73368 13.4536 9.71664 13.4622 9.69959V7.53371H8.31757C8.38442 8.96662 8.31757 22.8249 8.31757 22.8249H13.4622V14.2849C13.4622 13.8247 13.4935 13.374 13.6315 13.0448C14.0046 12.135 14.8522 11.1836 16.2691 11.1836C18.1335 11.1836 18.8786 12.5889 18.8786 14.6429V22.8249H24.0232V14.058C24.0243 9.35761 21.4838 7.17468 18.1 7.17468Z" fill="white"/>
</svg>
